<!--?xml version="1.0" standalone="no"?-->
              <svg id="sw-js-blob-svg" viewBox="0 0 100 100" xmlns="http://www.w3.org/2000/svg" version="1.1">
                    <defs> 
                        <linearGradient id="sw-gradient" x1="0" x2="1" y1="1" y2="0">
                            <stop id="stop1" stop-color="rgba(248, 117, 55, 1)" offset="0%"></stop>
                            <stop id="stop2" stop-color="rgba(251, 168, 31, 1)" offset="100%"></stop>
                        </linearGradient>
                    </defs>
                <path fill="url(#sw-gradient)" d="M14.3,-20.5C20.3,-18.4,28.1,-17.4,33.8,-13C39.5,-8.7,43,-1,42.5,6.5C41.9,13.9,37.3,21.1,31.7,27.2C26,33.4,19.4,38.4,12.3,39.3C5.2,40.3,-2.4,37.1,-10.3,34.9C-18.2,32.7,-26.5,31.4,-32.9,26.9C-39.4,22.4,-43.9,14.7,-44.2,6.9C-44.5,-0.9,-40.4,-8.8,-36.1,-15.7C-31.7,-22.7,-27,-28.7,-20.9,-30.8C-14.9,-32.8,-7.4,-30.9,-1.6,-28.4C4.2,-25.8,8.3,-22.6,14.3,-20.5Z" width="100%" height="100%" transform="translate(50 50)" stroke-width="0" style="transition: all 0.3s ease 0s;"></path>
              </svg>